grf
version=1
nRows=12
nColumns=37
inDegrees=no
endheader
time	ground_force_1_vx	ground_force_1_vy	ground_force_1_vz	ground_force_1_px	ground_force_1_py	ground_force_1_pz	ground_moment_1_mx	ground_moment_1_my	ground_moment_1_mz	ground_force_2_vx	ground_force_2_vy	ground_force_2_vz	ground_force_2_px	ground_force_2_py	ground_force_2_pz	ground_moment_2_mx	ground_moment_2_my	ground_moment_2_mz	ground_force_3_vx	ground_force_3_vy	ground_force_3_vz	ground_force_3_px	ground_force_3_py	ground_force_3_pz	ground_moment_3_mx	ground_moment_3_my	ground_moment_3_mz	ground_force_4_vx	ground_force_4_vy	ground_force_4_vz	ground_force_4_px	ground_force_4_py	ground_force_4_pz	ground_moment_4_mx	ground_moment_4_my	ground_moment_4_mz
      1.74000000	      0.00000000	     -0.00000000	      0.00000000	      0.00000000	      0.00000000	      0.00000000	      0.00000000	      0.00000000	      0.00000000	      3.56620455	     57.17383194	   -391.82244873	   -348.75673774	  -1167.87482450	      0.00000000	      0.00000000	      0.00000000	   1320.90817980	     -2.66132961	    -69.38255287	   -414.10311890	   -336.97490253	   -681.89564439	      0.00000000	      0.00000000	     -0.00000000	  -2413.52675766	      0.00000000	     -0.00000000	      0.00000000	      0.00000000	      0.00000000	      0.00000000	      0.00000000	      0.00000000	      0.00000000
      1.75000000	      0.00000000	     -0.00000000	      0.00000000	      0.00000000	      0.00000000	      0.00000000	      0.00000000	      0.00000000	      0.00000000	      2.63275957	     55.79982758	   -385.63925171	   -347.17286156	  -1168.99777172	      0.00000000	      0.00000000	      0.00000000	   1256.76551281	     -3.50968234	    -69.98936432	   -419.69787598	   -333.60173031	   -679.91799111	      0.00000000	      0.00000000	      0.00000000	  -2486.18132185	      0.00000000	     -0.00000000	      0.00000000	      0.00000000	      0.00000000	      0.00000000	      0.00000000	      0.00000000	      0.00000000
      1.76000000	      0.00000000	     -0.00000000	      0.00000000	      0.00000000	      0.00000000	      0.00000000	      0.00000000	      0.00000000	      0.00000000	      1.56609476	     54.58942795	   -377.56494141	   -345.71076220	  -1168.76315902	      0.00000000	      0.00000000	      0.00000000	   1247.58438364	     -4.12821664	    -69.68371546	   -422.65219116	   -330.77089325	   -680.13876929	      0.00000000	      0.00000000	     -0.00000000	  -2622.78856739	      0.00000000	     -0.00000000	      0.00000000	      0.00000000	      0.00000000	      0.00000000	      0.00000000	      0.00000000	      0.00000000
      1.77000000	      0.00000000	     -0.00000000	      0.00000000	      0.00000000	      0.00000000	      0.00000000	      0.00000000	      0.00000000	      0.00000000	      0.83743942	     54.13666916	   -372.41015625	   -343.94714014	  -1169.48665261	      0.00000000	      0.00000000	      0.00000000	   1450.64662180	     -5.23591412	    -69.59356644	   -424.91754150	   -328.35242813	   -679.06304327	      0.00000000	      0.00000000	     -0.00000000	  -2472.19988383	      0.00000000	     -0.00000000	      0.00000000	      0.00000000	      0.00000000	      0.00000000	      0.00000000	      0.00000000	      0.00000000
      1.78000000	      0.00000000	     -0.00000000	      0.00000000	      0.00000000	      0.00000000	      0.00000000	      0.00000000	      0.00000000	      0.00000000	     -0.53185284	     53.03429413	   -364.28149414	   -343.87322540	  -1167.57925993	      0.00000000	      0.00000000	      0.00000000	   1484.06967356	     -6.56830116	    -70.43746891	   -427.01968384	   -325.31492999	   -679.21586582	      0.00000000	      0.00000000	     -0.00000000	  -2540.68551259	      0.00000000	     -0.00000000	      0.00000000	      0.00000000	      0.00000000	      0.00000000	      0.00000000	      0.00000000	      0.00000000
      1.79000000	      0.00000000	     -0.00000000	      0.00000000	      0.00000000	      0.00000000	      0.00000000	      0.00000000	      0.00000000	      0.00000000	     -1.20824027	     52.23353195	   -361.31546021	   -342.16016693	  -1168.34925202	      0.00000000	      0.00000000	      0.00000000	   1674.88537949	     -8.02577739	    -71.45223929	   -430.51736450	   -323.61500956	   -678.25006469	      0.00000000	      0.00000000	     -0.00000000	  -2624.09587127	      0.00000000	     -0.00000000	      0.00000000	      0.00000000	      0.00000000	      0.00000000	      0.00000000	      0.00000000	      0.00000000
      1.80000000	      0.00000000	     -0.00000000	      0.00000000	      0.00000000	      0.00000000	      0.00000000	      0.00000000	      0.00000000	      0.00000000	     -2.23313332	     51.51594162	   -357.93936157	   -341.32251350	  -1168.42611760	      0.00000000	      0.00000000	     -0.00000000	   1616.81747451	     -8.82593980	    -72.55548019	   -434.69998169	   -321.61582624	   -677.49057231	      0.00000000	      0.00000000	     -0.00000000	  -2610.96678868	      0.00000000	     -0.00000000	      0.00000000	      0.00000000	      0.00000000	      0.00000000	      0.00000000	      0.00000000	      0.00000000
      1.81000000	      0.00000000	     -0.00000000	      0.00000000	      0.00000000	      0.00000000	      0.00000000	      0.00000000	      0.00000000	      0.00000000	     -2.94001341	     51.34173203	   -355.14059448	   -340.69757873	  -1168.74441876	      0.00000000	      0.00000000	      0.00000000	   1698.25822356	     -9.58222745	    -73.39532387	   -438.88931274	   -318.97276607	   -677.16780704	      0.00000000	      0.00000000	     -0.00000000	  -2446.37372463	      0.00000000	     -0.00000000	      0.00000000	      0.00000000	      0.00000000	      0.00000000	      0.00000000	      0.00000000	      0.00000000
      1.82000000	      0.00000000	     -0.00000000	      0.00000000	      0.00000000	      0.00000000	      0.00000000	      0.00000000	      0.00000000	      0.00000000	     -2.85357094	     51.15969086	   -354.40454102	   -339.52037177	  -1169.90529683	      0.00000000	     -0.00000000	      0.00000000	   1795.37107911	    -10.59897789	    -74.63052276	   -445.16833496	   -316.99713320	   -676.78941910	      0.00000000	      0.00000000	     -0.00000000	  -2421.28378968	      0.00000000	     -0.00000000	      0.00000000	      0.00000000	      0.00000000	      0.00000000	      0.00000000	      0.00000000	      0.00000000
      1.83000000	      0.00000000	     -0.00000000	      0.00000000	      0.00000000	      0.00000000	      0.00000000	      0.00000000	      0.00000000	      0.00000000	     -3.88223028	     51.25102997	   -354.06912231	   -338.81740890	  -1170.00840509	      0.00000000	      0.00000000	      0.00000000	   1709.22058924	    -11.71461290	    -75.64811604	   -450.39147949	   -314.80794381	   -676.78652421	      0.00000000	      0.00000000	     -0.00000000	  -2584.26040169	      0.00000000	     -0.00000000	      0.00000000	      0.00000000	      0.00000000	      0.00000000	      0.00000000	      0.00000000	      0.00000000
      1.84000000	      0.00000000	     -0.00000000	      0.00000000	      0.00000000	      0.00000000	      0.00000000	      0.00000000	      0.00000000	      0.00000000	     -4.10368347	     51.51828766	   -353.00515747	   -338.88751722	  -1170.37067864	      0.00000000	     -0.00000000	      0.00000000	   1875.74897092	    -13.30980970	    -76.53232458	   -457.05200195	   -312.86800490	   -675.77420891	      0.00000000	      0.00000000	     -0.00000000	  -2622.00237266	      0.00000000	     -0.00000000	      0.00000000	      0.00000000	      0.00000000	      0.00000000	      0.00000000	      0.00000000	      0.00000000
      1.85000000	      0.00000000	     -0.00000000	      0.00000000	      0.00000000	      0.00000000	      0.00000000	      0.00000000	      0.00000000	      0.00000000	     -4.81580973	     51.78398514	   -352.28927612	   -337.83429170	  -1169.67442747	      0.00000000	      0.00000000	      0.00000000	   1773.11912664	    -14.41411789	    -77.19407528	   -460.35095215	   -310.95344432	   -675.81273798	      0.00000000	      0.00000000	     -0.00000000	  -2708.66618154	      0.00000000	     -0.00000000	      0.00000000	      0.00000000	      0.00000000	      0.00000000	      0.00000000	      0.00000000	      0.00000000
